REM DIRINDEX 1\6,1\2\7,1\2\8,1\2\9,1\3\10,1\3\11,1\4\12,1\4\13,1\4\14,1\5\15,1\5\16,1\5\17
REM DIRNAME folder01,folder02,folder03,folder04,folder05,folder06,folder07,folder08,folder09,folder10,folder11,folder12,folder13,folder14,folder15,folder16,folder17
TITLE ""
FILE "3Q_t_0707-0722.mp3" MP3
  TRACK 01 AUDIO
    TITLE "10:cjc041_3024"
    INDEX 01 00:00:00
  TRACK 02 AUDIO
    TITLE "0:"
    INDEX 01 00:01:01
  TRACK 03 AUDIO
    TITLE "11:cjc041_3025"
    INDEX 01 00:01:56
  TRACK 04 AUDIO
    TITLE "0:"
    INDEX 01 00:04:13
  TRACK 05 AUDIO
    TITLE "10:cjc041_3026"
    INDEX 01 00:04:64
  TRACK 06 AUDIO
    TITLE "0:"
    INDEX 01 00:06:00
  TRACK 07 AUDIO
    TITLE "11:cjc041_3027"
    INDEX 01 00:06:51
  TRACK 08 AUDIO
    TITLE "0:"
    INDEX 01 00:07:62
  TRACK 09 AUDIO
    TITLE "10:cjc041_3028"
    INDEX 01 00:08:36
  TRACK 10 AUDIO
    TITLE "0:"
    INDEX 01 00:09:40
  TRACK 11 AUDIO
    TITLE "11:cjc041_3029"
    INDEX 01 00:10:16
  TRACK 12 AUDIO
    TITLE "0:"
    INDEX 01 00:11:29
  TRACK 13 AUDIO
    TITLE "10:cjc041_3030"
    INDEX 01 00:12:03
  TRACK 14 AUDIO
    TITLE "0:"
    INDEX 01 00:13:24
  TRACK 15 AUDIO
    TITLE "11:cjc041_3031"
    INDEX 01 00:13:73
  TRACK 16 AUDIO
    TITLE "0:"
    INDEX 01 00:17:10
  TRACK 17 AUDIO
    TITLE "10:cjc041_3032"
    INDEX 01 00:17:57
  TRACK 18 AUDIO
    TITLE "0:"
    INDEX 01 00:18:64
  TRACK 19 AUDIO
    TITLE "11:cjc041_3033"
    INDEX 01 00:19:38
  TRACK 20 AUDIO
    TITLE "0:"
    INDEX 01 00:21:49
  TRACK 21 AUDIO
    TITLE "10:cjc041_3034"
    INDEX 01 00:22:27
  TRACK 22 AUDIO
    TITLE "0:"
    INDEX 01 00:23:51
  TRACK 23 AUDIO
    TITLE "11:cjc041_3035"
    INDEX 01 00:24:29
  TRACK 24 AUDIO
    TITLE "0:"
    INDEX 01 00:25:48
  TRACK 25 AUDIO
    TITLE "10:cjc041_3036"
    INDEX 01 00:26:26
  TRACK 26 AUDIO
    TITLE "0:"
    INDEX 01 00:27:53
  TRACK 27 AUDIO
    TITLE "11:cjc041_3037"
    INDEX 01 00:28:31
  TRACK 28 AUDIO
    TITLE "0:"
    INDEX 01 00:29:38
  TRACK 29 AUDIO
    TITLE "10:cjc041_3038"
    INDEX 01 00:30:14
  TRACK 30 AUDIO
    TITLE "0:"
    INDEX 01 00:31:29
  TRACK 31 AUDIO
    TITLE "11:cjc041_3039"
    INDEX 01 00:32:07
  TRACK 32 AUDIO
    TITLE "0:"
    INDEX 01 00:33:13
  TRACK 33 AUDIO
    TITLE "10:cjc041_3040"
    INDEX 01 00:33:68
  TRACK 34 AUDIO
    TITLE "0:"
    INDEX 01 00:35:15
  TRACK 35 AUDIO
    TITLE "11:cjc041_3041"
    INDEX 01 00:35:72
  TRACK 36 AUDIO
    TITLE "0:"
    INDEX 01 00:36:66
  TRACK 37 AUDIO
    TITLE "10:cjc041_3042"
    INDEX 01 00:37:44
  TRACK 38 AUDIO
    TITLE "0:"
    INDEX 01 00:38:49
  TRACK 39 AUDIO
    TITLE "11:cjc041_3043"
    INDEX 01 00:39:29
  TRACK 40 AUDIO
    TITLE "0:"
    INDEX 01 00:40:34
  TRACK 41 AUDIO
    TITLE "10:cjc041_3044"
    INDEX 01 00:41:14
  TRACK 42 AUDIO
    TITLE "0:"
    INDEX 01 00:42:45
  TRACK 43 AUDIO
    TITLE "11:cjc041_3045"
    INDEX 01 00:43:23
  TRACK 44 AUDIO
    TITLE "0:"
    INDEX 01 00:44:30
  TRACK 45 AUDIO
    TITLE "10:cjc041_3046"
    INDEX 01 00:45:06
  TRACK 46 AUDIO
    TITLE "0:"
    INDEX 01 00:46:17
  TRACK 47 AUDIO
    TITLE "11:cjc041_3047"
    INDEX 01 00:46:70
  TRACK 48 AUDIO
    TITLE "0:"
    INDEX 01 00:48:18
  TRACK 49 AUDIO
    TITLE "10:cjc041_3048"
    INDEX 01 00:48:71
  TRACK 50 AUDIO
    TITLE "0:"
    INDEX 01 00:50:05
  TRACK 51 AUDIO
    TITLE "11:cjc041_3049"
    INDEX 01 00:50:60
  TRACK 52 AUDIO
    TITLE "0:"
    INDEX 01 00:52:00
  TRACK 53 AUDIO
    TITLE "10:cjc041_3050"
    INDEX 01 00:52:49
  TRACK 54 AUDIO
    TITLE "0:"
    INDEX 01 00:53:57
  TRACK 55 AUDIO
    TITLE "11:cjc041_3051"
    INDEX 01 00:54:29
  TRACK 56 AUDIO
    TITLE "0:"
    INDEX 01 00:55:42
  TRACK 57 AUDIO
    TITLE "10:cjc041_3052"
    INDEX 01 00:56:25
  TRACK 58 AUDIO
    TITLE "0:"
    INDEX 01 00:57:45
  TRACK 59 AUDIO
    TITLE "11:cjc041_3053"
    INDEX 01 00:58:18
  TRACK 60 AUDIO
    TITLE "0:"
    INDEX 01 00:59:34
  TRACK 61 AUDIO
    TITLE "10:cjc041_3054"
    INDEX 01 01:00:12
  TRACK 62 AUDIO
    TITLE "0:"
    INDEX 01 01:01:15
  TRACK 63 AUDIO
    TITLE "11:cjc041_3055"
    INDEX 01 01:01:70
  TRACK 64 AUDIO
    TITLE "0:"
    INDEX 01 01:02:73
